<svg id="Layer_1" data-name="Layer 1" xmlns="http://www.w3.org/2000/svg" viewBox="0 0 75 75"><defs><style>.cls-1{fill:#fff;}.cls-2{fill:#01aeb3;}.cls-3{fill:#ef2b3e;}</style></defs><title>Artboard 1</title><path d="M70.69,73.78l-.3-.05c-.17,1.06-.74,1-1.53.9A3.39,3.39,0,0,0,67,75h4.23l-.08,0Z"/><path d="M23.8,70c2.29-2.13,4.53-4.32,6.85-6.42,1.06-1,2.29-1.73,3.45-2.59l.47-.23.75-.43v0L36,60h0l.36-.21,2.59-1c1.28,0,2.68-.4,3.8,0a3.08,3.08,0,0,0,2.62-.21h0l.78-.24a.24.24,0,0,0,.18,0l.53-.25a17.46,17.46,0,0,1,6.67-1.21c2.12,0,4.24-.14,6.36-.09s4.1-.1,5.93.52c.71.24,1.44.45,2.16.69a14.31,14.31,0,0,1,3.88,1.75,14.25,14.25,0,0,0,1.6.94l.12.14.7.82.71.68V57.93l-1.13-1.31c-.45-.65-.92-.29-1.4,0L71,55.93l-1.7-.76c-.6-.26-1.2-.5-1.81-.74H65l-.69,0c-.7-.32-.69-1.49-1.79-1.38a2.26,2.26,0,0,1-2.42-1.5c-.11-.23-.4-.38-.57-.53a6,6,0,0,1-1.22.66.87.87,0,0,1-.78-.28,6.8,6.8,0,0,1-.64-2.33c0-.41.65-.82,1-1.24l.48-.21,1-.5c1.42-.33,1.67-.66,1.31-1.69l1.81-3.37.74-.35c.9.55,1.78,1.12,2.69,1.65a10.69,10.69,0,0,0,1.29.54l.05-.09,1.1.58a.32.32,0,0,0,.18.12l.66.34a9.84,9.84,0,0,0,.8,1.2l1,1.06c.91,1,1.84,2,2.69,3a3.13,3.13,0,0,0,1.31,1V0H0V75H19.82a18.53,18.53,0,0,1,3.5-4.55Z"/><path d="M63.4,44.59c-.42,1.32-1.68,2.58-.23,4.26,1.07-1.47.69-3.13,1.24-4.77l-1,.51Z"/><path d="M63.35,44.56l.06,0v0Z"/><path d="M74.06,73.9A1.61,1.61,0,0,0,72.82,75H75V73.12C74.59,73.5,74.35,73.83,74.06,73.9Z"/><path class="cls-1" d="M13.69,24.76a3,3,0,0,1-1.24-1.17A3.39,3.39,0,0,1,12,21.85V20.77a.15.15,0,0,1,.17-.17h1.29a.15.15,0,0,1,.17.17v1.09a1.88,1.88,0,0,0,.52,1.38,1.83,1.83,0,0,0,1.37.53,1.81,1.81,0,0,0,1.91-1.91V13.31a.15.15,0,0,1,.17-.17H18.9a.15.15,0,0,1,.17.17v8.54a3.39,3.39,0,0,1-.44,1.74,3,3,0,0,1-1.24,1.17,4,4,0,0,1-1.85.42A3.91,3.91,0,0,1,13.69,24.76Z"/><path class="cls-1" d="M22.84,24.75a3.22,3.22,0,0,1-1.28-1.27,3.79,3.79,0,0,1-.46-1.89v-5a3.76,3.76,0,0,1,.46-1.87,3.22,3.22,0,0,1,1.28-1.27A3.94,3.94,0,0,1,24.75,13a4,4,0,0,1,1.92.45A3.2,3.2,0,0,1,28,14.72a3.75,3.75,0,0,1,.46,1.87v5A3.78,3.78,0,0,1,28,23.48a3.2,3.2,0,0,1-1.29,1.27,4,4,0,0,1-1.92.45A3.93,3.93,0,0,1,22.84,24.75Zm3.39-1.56a2.11,2.11,0,0,0,.56-1.53v-5.1A2.17,2.17,0,0,0,26.23,15a1.94,1.94,0,0,0-1.48-.6,1.92,1.92,0,0,0-1.46.6,2.16,2.16,0,0,0-.56,1.55v5.1a2.11,2.11,0,0,0,.56,1.52,1.93,1.93,0,0,0,1.46.59A2,2,0,0,0,26.23,23.19Z"/><path class="cls-1" d="M36.25,13.14h1.29a.15.15,0,0,1,.17.17V24.87a.15.15,0,0,1-.17.17H36.25a.15.15,0,0,1-.17-.17v-5a.06.06,0,0,0-.07-.07H32.3a.06.06,0,0,0-.07.07v5a.15.15,0,0,1-.17.17H30.77a.15.15,0,0,1-.17-.17V13.31a.15.15,0,0,1,.17-.17h1.29a.15.15,0,0,1,.17.17v5a.06.06,0,0,0,.07.07H36a.06.06,0,0,0,.07-.07v-5A.15.15,0,0,1,36.25,13.14Z"/><path class="cls-1" d="M40.08,24.87V13.31a.15.15,0,0,1,.17-.17h1.28a.2.2,0,0,1,.2.12l4.15,8,.06,0s0,0,0-.05V13.31a.15.15,0,0,1,.17-.17h1.28a.15.15,0,0,1,.17.17V24.87a.15.15,0,0,1-.17.17H46.12a.2.2,0,0,1-.2-.12l-4.13-8a.09.09,0,0,0-.06,0s0,0,0,.05l0,8a.15.15,0,0,1-.17.17H40.25A.15.15,0,0,1,40.08,24.87Z"/><path class="cls-1" d="M59,24.91l-2-5.1a.07.07,0,0,0-.07-.05h-1.8a.06.06,0,0,0-.07.07v5.05a.15.15,0,0,1-.17.17H53.59a.15.15,0,0,1-.17-.17V13.29a.15.15,0,0,1,.17-.17H57.4a3,3,0,0,1,2.3.94,3.46,3.46,0,0,1,.87,2.45A3.5,3.5,0,0,1,60,18.45a2.78,2.78,0,0,1-1.46,1.13s0,0,0,.09l2.09,5.17,0,.07c0,.09-.05.14-.15.14H59.17A.18.18,0,0,1,59,24.91ZM55.05,14.6v3.81a.06.06,0,0,0,.07.07h2.06a1.63,1.63,0,0,0,1.27-.54,2,2,0,0,0,.48-1.42,2.11,2.11,0,0,0-.48-1.45,1.61,1.61,0,0,0-1.28-.54H55.12A.06.06,0,0,0,55.05,14.6Z"/><path class="cls-1" d="M19.11,31.66A3.52,3.52,0,0,1,20,34.15a3.41,3.41,0,0,1-.88,2.44,3,3,0,0,1-2.32.93H14.51a.06.06,0,0,0-.07.07v4.88a.15.15,0,0,1-.17.17H13a.15.15,0,0,1-.17-.17V30.88a.15.15,0,0,1,.17-.17h3.81A3,3,0,0,1,19.11,31.66Zm-1.24,4a2.11,2.11,0,0,0,.5-1.47,2.16,2.16,0,0,0-.5-1.5,1.68,1.68,0,0,0-1.32-.56h-2a.06.06,0,0,0-.07.07v3.95a.06.06,0,0,0,.07.07h2A1.7,1.7,0,0,0,17.87,35.66Z"/><path class="cls-1" d="M23.19,42.34a3.22,3.22,0,0,1-1.28-1.27,3.79,3.79,0,0,1-.46-1.89v-5a3.76,3.76,0,0,1,.46-1.87A3.22,3.22,0,0,1,23.19,31a3.94,3.94,0,0,1,1.91-.45A4,4,0,0,1,27,31a3.2,3.2,0,0,1,1.29,1.27,3.75,3.75,0,0,1,.46,1.87v5a3.78,3.78,0,0,1-.46,1.89A3.2,3.2,0,0,1,27,42.34a4,4,0,0,1-1.92.45A3.93,3.93,0,0,1,23.19,42.34Zm3.39-1.56a2.11,2.11,0,0,0,.56-1.53v-5.1a2.17,2.17,0,0,0-.56-1.55,1.94,1.94,0,0,0-1.48-.6,1.92,1.92,0,0,0-1.46.6,2.16,2.16,0,0,0-.56,1.55v5.1a2.11,2.11,0,0,0,.56,1.52,1.93,1.93,0,0,0,1.46.59A2,2,0,0,0,26.59,40.79Z"/><path class="cls-1" d="M32.61,42.49,29.91,30.92l0-.07c0-.08.05-.12.15-.12H31.4a.16.16,0,0,1,.19.15l1.82,8.23s0,.05,0,.05,0,0,0-.05l1.65-8.23a.18.18,0,0,1,.19-.15h1.24a.16.16,0,0,1,.19.15l1.77,8.23s0,.05,0,.05,0,0,0-.05l1.74-8.23a.18.18,0,0,1,.19-.15h1.31a.14.14,0,0,1,.15.19l-2.6,11.57a.16.16,0,0,1-.19.15H37.9a.17.17,0,0,1-.19-.15L36,34.07s0-.05,0-.05,0,0,0,.05l-1.68,8.42a.16.16,0,0,1-.19.15H32.8A.18.18,0,0,1,32.61,42.49Z"/><path class="cls-1" d="M50.13,32.14H45.2a.06.06,0,0,0-.07.07v3.67a.06.06,0,0,0,.07.07h3.25a.15.15,0,0,1,.17.17V37.2a.15.15,0,0,1-.17.17H45.2a.06.06,0,0,0-.07.07v3.73a.06.06,0,0,0,.07.07h4.93a.15.15,0,0,1,.17.17v1.07a.15.15,0,0,1-.17.17H43.67a.15.15,0,0,1-.17-.17V30.9a.15.15,0,0,1,.17-.17h6.47a.15.15,0,0,1,.17.17V32A.15.15,0,0,1,50.13,32.14Z"/><path class="cls-1" d="M52.26,42.47V30.9a.15.15,0,0,1,.17-.17h1.29a.15.15,0,0,1,.17.17V41.16a.06.06,0,0,0,.07.07h4.83a.15.15,0,0,1,.17.17v1.07a.15.15,0,0,1-.17.17H52.43A.15.15,0,0,1,52.26,42.47Z"/><path class="cls-1" d="M60.56,42.47V30.9a.15.15,0,0,1,.17-.17H62a.15.15,0,0,1,.17.17V41.16a.06.06,0,0,0,.07.07h4.83a.15.15,0,0,1,.17.17v1.07a.15.15,0,0,1-.17.17H60.73A.15.15,0,0,1,60.56,42.47Z"/><path class="cls-1" d="M13.44,59.49a2.94,2.94,0,0,1-1-2.31v-.48a.15.15,0,0,1,.17-.17h1.26a.15.15,0,0,1,.17.17v.39a1.74,1.74,0,0,0,.56,1.33,2.12,2.12,0,0,0,1.5.52,2,2,0,0,0,1.39-.47,1.61,1.61,0,0,0,.5-1.23,1.53,1.53,0,0,0-.25-.88,2.66,2.66,0,0,0-.74-.7q-.48-.32-1.42-.82a15.92,15.92,0,0,1-1.65-1,3.69,3.69,0,0,1-1-1.07,2.87,2.87,0,0,1-.41-1.57A2.83,2.83,0,0,1,13.44,49a3.62,3.62,0,0,1,2.47-.82,4.21,4.21,0,0,1,1.91.41,3,3,0,0,1,1.27,1.15,3.22,3.22,0,0,1,.45,1.71v.39a.15.15,0,0,1-.17.17H18.08a.15.15,0,0,1-.17-.17v-.36a1.81,1.81,0,0,0-.54-1.36,2.06,2.06,0,0,0-1.5-.53,1.87,1.87,0,0,0-1.29.43,1.74,1.74,0,0,0-.24,2.08,2.44,2.44,0,0,0,.71.66q.47.31,1.4.8,1.17.66,1.79,1.09a3.52,3.52,0,0,1,1,1,2.73,2.73,0,0,1,.38,1.48,3,3,0,0,1-1,2.33,3.73,3.73,0,0,1-2.59.87A3.8,3.8,0,0,1,13.44,59.49Z"/><path class="cls-1" d="M28.14,48.5v1.09a.15.15,0,0,1-.17.17H25.23a.06.06,0,0,0-.07.07V60.06a.15.15,0,0,1-.17.17H23.7a.15.15,0,0,1-.17-.17V49.82a.06.06,0,0,0-.07-.07H20.84a.15.15,0,0,1-.17-.17V48.5a.15.15,0,0,1,.17-.17H28A.15.15,0,0,1,28.14,48.5Z"/><path class="cls-1" d="M31.56,59.92a3.14,3.14,0,0,1-1.28-1.28,3.93,3.93,0,0,1-.45-1.91V48.5a.15.15,0,0,1,.17-.17H31.3a.15.15,0,0,1,.17.17v8.34A2.15,2.15,0,0,0,32,58.37a1.88,1.88,0,0,0,1.44.59,1.9,1.9,0,0,0,1.45-.59,2.16,2.16,0,0,0,.55-1.54V48.5a.15.15,0,0,1,.17-.17h1.29a.15.15,0,0,1,.17.17v8.23a3.93,3.93,0,0,1-.45,1.91,3.15,3.15,0,0,1-1.28,1.28,4.25,4.25,0,0,1-3.81,0Z"/><path class="cls-1" d="M39.35,60.06V48.5a.15.15,0,0,1,.17-.17H43a3.51,3.51,0,0,1,2.53.9,3.16,3.16,0,0,1,.94,2.4v5.31a3.16,3.16,0,0,1-.94,2.4,3.5,3.5,0,0,1-2.53.9H39.52A.15.15,0,0,1,39.35,60.06ZM41,58.82l2,0a1.64,1.64,0,0,0,1.3-.55,2.24,2.24,0,0,0,.5-1.49v-5a2.18,2.18,0,0,0-.49-1.51A1.69,1.69,0,0,0,43,49.74H41a.06.06,0,0,0-.07.07v8.95A.06.06,0,0,0,41,58.82Z"/><path class="cls-1" d="M48.6,60.06V48.5a.15.15,0,0,1,.17-.17h1.29a.15.15,0,0,1,.17.17V60.06a.15.15,0,0,1-.17.17H48.77A.15.15,0,0,1,48.6,60.06Z"/><path class="cls-1" d="M54.14,59.94a3.23,3.23,0,0,1-1.28-1.27,3.79,3.79,0,0,1-.46-1.89v-5a3.76,3.76,0,0,1,.46-1.87,3.22,3.22,0,0,1,1.28-1.27,3.94,3.94,0,0,1,1.91-.45,4,4,0,0,1,1.92.45,3.21,3.21,0,0,1,1.29,1.27,3.76,3.76,0,0,1,.46,1.87v5a3.79,3.79,0,0,1-.46,1.89A3.22,3.22,0,0,1,58,59.94a4,4,0,0,1-1.92.45A3.94,3.94,0,0,1,54.14,59.94Zm3.39-1.56a2.11,2.11,0,0,0,.56-1.53v-5.1a2.17,2.17,0,0,0-.56-1.55,2.12,2.12,0,0,0-2.94,0A2.17,2.17,0,0,0,54,51.75v5.1a2.11,2.11,0,0,0,.56,1.52,1.93,1.93,0,0,0,1.46.59A2,2,0,0,0,57.53,58.38Z"/><path class="cls-2" d="M56.35,39.56l.06,0v0Z"/><path class="cls-3" d="M74.29,61.59l-.7-.82-.12-.14a14.25,14.25,0,0,1-1.6-.94A14.31,14.31,0,0,0,68,58c-.72-.23-1.45-.44-2.16-.69-1.83-.62-3.94-.47-5.93-.52s-4.24.06-6.36.09A17.46,17.46,0,0,0,46.89,58l-.53.25a.24.24,0,0,1-.18,0l-.78.24h0a3.08,3.08,0,0,1-2.62.21c-1.12-.4-2.52,0-3.8,0l-2.59,1L36,60h0l-.68.32v0l-.75.43-.47.23c-1.15.86-2.38,1.63-3.45,2.59-2.32,2.1-4.56,4.29-6.85,6.42l-.48.45A18.53,18.53,0,0,0,19.82,75H67a3.39,3.39,0,0,1,1.81-.37c.79.09,1.36.17,1.53-.9l.3.05L71.2,75l.08,0h1.54a1.61,1.61,0,0,1,1.24-1.1c.29-.07.54-.4.94-.78V62.27Z"/><path class="cls-2" d="M73.69,50.12c-.84-1-1.77-2-2.69-3l-1-1.06a9.84,9.84,0,0,1-.8-1.2l-.66-.34a.32.32,0,0,1-.18-.12l-1.1-.58-.05.09a10.69,10.69,0,0,1-1.29-.54c-.91-.52-1.8-1.1-2.69-1.65l-.74.35L60.7,45.46c.36,1,.1,1.35-1.31,1.69l-1,.5-.48.21c-.36.41-1,.83-1,1.24a6.8,6.8,0,0,0,.64,2.33.87.87,0,0,0,.78.28,6,6,0,0,0,1.22-.66c.17.15.46.3.57.53a2.26,2.26,0,0,0,2.42,1.5c1.1-.11,1.09,1.06,1.79,1.38l.69,0h2.47c.6.25,1.21.48,1.81.74l1.7.76,1.47.66c.47-.25.95-.61,1.4,0L75,57.93V51.08A3.13,3.13,0,0,1,73.69,50.12ZM63.18,48.86c-1.45-1.69-.19-2.94.23-4.26l-.06,0,.06,0v0h0l1-.51C63.86,45.73,64.25,47.38,63.18,48.86Z"/></svg>